<?xml version="1.0" encoding="UTF-8" standalone="no"?><!DOCTYPE svg PUBLIC "-//W3C//DTD SVG 1.1//EN" "http://www.w3.org/Graphics/SVG/1.1/DTD/svg11.dtd"><svg width="100%" height="100%" viewBox="0 0 60 60" version="1.1" xmlns="http://www.w3.org/2000/svg" xmlns:xlink="http://www.w3.org/1999/xlink" xml:space="preserve" xmlns:serif="http://www.serif.com/" style="fill-rule:evenodd;clip-rule:evenodd;stroke-linejoin:round;stroke-miterlimit:1.41421;"><path d="M43.889,33.19c-1.466,-3.447 -4.964,-4.831 -8.703,-5.746l-8.776,-2.158c-1.509,-0.35 -3.814,-0.952 -3.814,-3.762c0,-3.261 3.409,-4.316 6.271,-4.316c6.574,0 7.174,3.814 7.376,5.42l5.964,0c0.771,1.277 1.364,2.689 1.712,4.221c0.489,2.16 0.44,4.316 -0.03,6.341Zm-14.019,9.508c-6.571,0 -7.578,-3.815 -7.627,-5.821l-4.736,0c-0.63,-1.142 -1.123,-2.387 -1.427,-3.726c-0.539,-2.382 -0.442,-4.762 0.172,-6.964c1.659,4.343 6.139,5.4 10.756,6.477l3.865,0.903c3.812,0.903 6.524,1.655 6.524,4.467c0,3.811 -3.964,4.664 -7.527,4.664Zm0.125,-32.436c-10.883,0 -19.734,8.855 -19.734,19.738c0,10.886 8.851,19.738 19.734,19.738c10.884,0 19.743,-8.852 19.743,-19.738c0,-10.883 -8.859,-19.738 -19.743,-19.738Z" style="fill:#0c6333;fill-rule:nonzero;"/><path d="M34.989,51.874c-12.059,2.754 -24.109,-4.822 -26.863,-16.881c-2.752,-12.059 4.821,-24.111 16.877,-26.864c12.066,-2.753 24.119,4.819 26.871,16.881c2.752,12.058 -4.819,24.112 -16.885,26.864Zm23.891,-19.24c0.079,-0.87 0.12,-1.75 0.12,-2.635c-0.001,-0.884 -0.044,-1.776 -0.126,-2.672c0,0 -1.499,-0.571 -3.653,-1.091c-0.095,-0.636 -0.207,-1.274 -0.353,-1.912c-0.148,-0.651 -0.328,-1.285 -0.523,-1.912c1.717,-1.402 2.819,-2.57 2.819,-2.57c-0.306,-0.818 -0.653,-1.629 -1.036,-2.425c-0.385,-0.797 -0.811,-1.581 -1.275,-2.351c0,0 -1.593,0.132 -3.756,0.597c-0.742,-1.09 -1.562,-2.115 -2.453,-3.067c0.937,-2.005 1.422,-3.534 1.422,-3.534c-0.63,-0.605 -1.294,-1.185 -1.986,-1.737c-0.693,-0.55 -1.414,-1.074 -2.167,-1.564c0,0 -1.383,0.814 -3.13,2.171c-1.132,-0.655 -2.313,-1.229 -3.537,-1.706c-0.026,-2.212 -0.252,-3.797 -0.252,-3.797c-0.832,-0.271 -1.679,-0.507 -2.541,-0.703c-0.864,-0.195 -1.743,-0.353 -2.634,-0.47c0,0 -0.889,1.328 -1.871,3.304c-1.295,-0.098 -2.609,-0.095 -3.932,0.01c-0.984,-1.982 -1.875,-3.314 -1.875,-3.314c-0.867,0.116 -1.733,0.273 -2.596,0.471c-0.862,0.197 -1.721,0.438 -2.576,0.718c0,0 -0.224,1.585 -0.252,3.795c-1.238,0.482 -2.421,1.051 -3.544,1.704c-1.743,-1.357 -3.122,-2.167 -3.122,-2.167c-0.729,0.48 -1.443,0.997 -2.134,1.551c-0.691,0.552 -1.362,1.141 -2.01,1.764c0,0 0.485,1.525 1.42,3.529c-0.893,0.962 -1.707,1.993 -2.441,3.076c-2.166,-0.468 -3.765,-0.602 -3.765,-0.602c-0.45,0.751 -0.867,1.525 -1.25,2.324c-0.383,0.798 -0.732,1.619 -1.045,2.46c0,0 1.1,1.167 2.813,2.567c-0.387,1.246 -0.681,2.524 -0.873,3.829c-2.153,0.518 -3.647,1.091 -3.647,1.091c-0.081,0.869 -0.119,1.75 -0.119,2.634c0.001,0.886 0.041,1.777 0.126,2.673c0,0 1.499,0.572 3.652,1.09c0.096,0.637 0.207,1.275 0.354,1.913c0.148,0.651 0.327,1.285 0.521,1.912c-1.716,1.403 -2.818,2.57 -2.818,2.57c0.306,0.819 0.651,1.628 1.036,2.426c0.386,0.796 0.81,1.58 1.273,2.35c0,0 1.596,-0.133 3.758,-0.599c0.742,1.091 1.561,2.115 2.452,3.068c-0.936,2.006 -1.422,3.532 -1.422,3.532c0.631,0.607 1.294,1.186 1.987,1.737c0.692,0.55 1.415,1.072 2.169,1.567c0,0 1.379,-0.814 3.127,-2.172c1.133,0.656 2.313,1.23 3.537,1.707c0.028,2.212 0.253,3.797 0.253,3.797c0.83,0.27 1.679,0.507 2.541,0.703c0.863,0.195 1.741,0.351 2.634,0.47c0,0 0.887,-1.326 1.87,-3.304c1.296,0.1 2.61,0.096 3.934,-0.01c0.983,1.984 1.875,3.313 1.875,3.313c0.865,-0.118 1.732,-0.272 2.595,-0.469c0.862,-0.2 1.721,-0.442 2.575,-0.721c0,0 0.226,-1.583 0.252,-3.793c1.237,-0.482 2.422,-1.052 3.546,-1.704c1.744,1.357 3.12,2.165 3.12,2.165c0.73,-0.481 1.442,-0.997 2.135,-1.549c0.69,-0.553 1.362,-1.143 2.009,-1.765c0,0 -0.485,-1.524 -1.419,-3.529c0.894,-0.962 1.707,-1.992 2.441,-3.075c2.167,0.468 3.765,0.601 3.765,0.601c0.449,-0.75 0.867,-1.525 1.25,-2.322c0.383,-0.798 0.733,-1.619 1.046,-2.462c0,0 -1.102,-1.164 -2.814,-2.566c0.388,-1.246 0.681,-2.524 0.873,-3.828c2.151,-0.519 3.647,-1.092 3.647,-1.092Z" style="fill:#0c6333;fill-rule:nonzero;"/></svg>