<?xml version="1.0" encoding="UTF-8" standalone="no"?>
<!DOCTYPE svg PUBLIC "-//W3C//DTD SVG 1.1//EN" "http://www.w3.org/Graphics/SVG/1.1/DTD/svg11.dtd">
<svg width="100%" height="100%" viewBox="0 0 700 100" version="1.1" xmlns="http://www.w3.org/2000/svg" xmlns:xlink="http://www.w3.org/1999/xlink" xml:space="preserve" xmlns:serif="http://www.serif.com/" style="fill-rule:evenodd;clip-rule:evenodd;stroke-linecap:round;stroke-linejoin:round;stroke-miterlimit:1.5;">
    <rect id="Artboard1" x="0" y="0" width="700" height="100" style="fill:none;"/>
    <path d="M22.167,19.157L30.355,54.598L32.119,64.466L33.925,54.808L40.896,19.157L54.543,19.157L61.892,54.598L63.781,64.466L65.671,54.976L73.943,19.157L87.087,19.157L69.66,81.053L57.314,81.053L49.84,44.856L47.656,32.888L45.473,44.856L37.998,81.053L25.988,81.053L8.436,19.157L22.167,19.157Z" style="fill:rgb(68,68,68);fill-rule:nonzero;"/>
    <path d="M129.751,38.851C129.751,35.632 128.904,33.336 127.21,31.964C125.517,30.593 123.144,29.907 120.093,29.907L108.041,29.907L108.041,48.131L120.093,48.131C123.144,48.131 125.517,47.389 127.21,45.906C128.904,44.422 129.751,42.07 129.751,38.851ZM142.559,38.767C142.559,46.074 140.711,51.239 137.016,54.262C133.32,57.286 128.043,58.797 121.185,58.797L108.041,58.797L108.041,81.053L95.191,81.053L95.191,19.157L122.15,19.157C128.365,19.157 133.32,20.752 137.016,23.944C140.711,27.135 142.559,32.076 142.559,38.767Z" style="fill:rgb(68,68,68);fill-rule:nonzero;"/>
    <path d="M304.984,61.947C305.376,64.774 306.146,66.888 307.294,68.288C309.394,70.835 312.991,72.109 318.086,72.109C321.137,72.109 323.615,71.773 325.519,71.101C329.13,69.813 330.936,67.42 330.936,63.92C330.936,61.877 330.04,60.295 328.248,59.175C326.456,58.083 323.643,57.118 319.808,56.278L313.257,54.808C306.818,53.352 302.367,51.771 299.903,50.063C295.732,47.208 293.646,42.742 293.646,36.667C293.646,31.125 295.662,26.519 299.693,22.852C303.725,19.185 309.646,17.351 317.456,17.351C323.979,17.351 329.543,19.08 334.148,22.537C338.753,25.994 341.168,31.013 341.392,37.591L328.962,37.591C328.738,33.868 327.114,31.222 324.091,29.655C322.075,28.619 319.57,28.101 316.574,28.101C313.243,28.101 310.583,28.773 308.596,30.117C306.608,31.46 305.614,33.336 305.614,35.744C305.614,37.955 306.594,39.607 308.554,40.699C309.813,41.427 312.501,42.28 316.616,43.26L327.282,45.822C331.957,46.942 335.485,48.439 337.864,50.315C341.56,53.226 343.407,57.44 343.407,62.955C343.407,68.61 341.245,73.306 336.919,77.043C332.594,80.78 326.484,82.649 318.59,82.649C310.527,82.649 304.187,80.808 299.567,77.127C294.948,73.446 292.639,68.386 292.639,61.947L304.984,61.947Z" style="fill:rgb(68,68,68);fill-rule:nonzero;"/>
    <path d="M397.955,19.157L397.955,30.117L379.437,30.117L379.437,81.053L366.419,81.053L366.419,30.117L347.816,30.117L347.816,19.157L397.955,19.157Z" style="fill:rgb(68,68,68);fill-rule:nonzero;"/>
    <path d="M422.437,57.664L438.142,57.664L430.415,33.308L422.437,57.664ZM423.234,19.157L437.848,19.157L459.768,81.053L445.742,81.053L441.753,68.33L418.951,68.33L414.668,81.053L401.146,81.053L423.234,19.157Z" style="fill:rgb(68,68,68);fill-rule:nonzero;"/>
    <path d="M480.554,29.907L480.554,46.536L495.209,46.536C498.12,46.536 500.304,46.2 501.76,45.528C504.335,44.352 505.623,42.028 505.623,38.557C505.623,34.806 504.377,32.286 501.886,30.999C500.486,30.271 498.386,29.907 495.587,29.907L480.554,29.907ZM498.274,19.157C502.614,19.241 505.952,19.773 508.29,20.752C510.627,21.732 512.608,23.174 514.231,25.078C515.575,26.645 516.639,28.381 517.423,30.285C518.207,32.188 518.599,34.358 518.599,36.793C518.599,39.733 517.857,42.623 516.373,45.465C514.889,48.306 512.44,50.315 509.024,51.491C511.88,52.639 513.903,54.269 515.092,56.383C516.282,58.496 516.877,61.723 516.877,66.062L516.877,70.219C516.877,73.047 516.989,74.964 517.213,75.972C517.549,77.568 518.333,78.744 519.564,79.5L519.564,81.053L505.329,81.053C504.937,79.681 504.657,78.576 504.489,77.736C504.153,76 503.971,74.222 503.943,72.403L503.859,66.65C503.803,62.703 503.083,60.071 501.697,58.755C500.311,57.44 497.715,56.782 493.907,56.782L480.554,56.782L480.554,81.053L467.914,81.053L467.914,19.157L498.274,19.157Z" style="fill:rgb(68,68,68);fill-rule:nonzero;"/>
    <path d="M574.7,19.157L574.7,30.117L556.182,30.117L556.182,81.053L543.164,81.053L543.164,30.117L524.562,30.117L524.562,19.157L574.7,19.157Z" style="fill:rgb(68,68,68);fill-rule:nonzero;"/>
    <path d="M628.03,30.117L595.276,30.117L595.276,43.26L625.343,43.26L625.343,54.01L595.276,54.01L595.276,69.925L629.542,69.925L629.542,81.053L582.637,81.053L582.637,19.157L628.03,19.157L628.03,30.117Z" style="fill:rgb(68,68,68);fill-rule:nonzero;"/>
    <path d="M652.554,29.907L652.554,46.536L667.209,46.536C670.12,46.536 672.304,46.2 673.76,45.528C676.335,44.352 677.623,42.028 677.623,38.557C677.623,34.806 676.377,32.286 673.886,30.999C672.486,30.271 670.386,29.907 667.587,29.907L652.554,29.907ZM670.274,19.157C674.614,19.241 677.952,19.773 680.29,20.752C682.627,21.732 684.608,23.174 686.231,25.078C687.575,26.645 688.639,28.381 689.423,30.285C690.207,32.188 690.599,34.358 690.599,36.793C690.599,39.733 689.857,42.623 688.373,45.465C686.889,48.306 684.44,50.315 681.024,51.491C683.88,52.639 685.903,54.269 687.092,56.383C688.282,58.496 688.877,61.723 688.877,66.062L688.877,70.219C688.877,73.047 688.989,74.964 689.213,75.972C689.549,77.568 690.333,78.744 691.564,79.5L691.564,81.053L677.329,81.053C676.937,79.681 676.657,78.576 676.489,77.736C676.153,76 675.971,74.222 675.943,72.403L675.859,66.65C675.803,62.703 675.083,60.071 673.697,58.755C672.311,57.44 669.715,56.782 665.907,56.782L652.554,56.782L652.554,81.053L639.914,81.053L639.914,19.157L670.274,19.157Z" style="fill:rgb(68,68,68);fill-rule:nonzero;"/>
    <path d="M233.004,50.057L192.996,50.057" style="fill:none;stroke:rgb(111,0,222);stroke-width:5px;"/>
    <path d="M213.258,7.066C229.379,7.209 244.886,17.062 251.785,31.473C259.762,48.136 255.424,69.839 241.599,82.169C229.832,92.664 212.041,95.859 197.305,90.096C179.828,83.262 168.152,63.918 170.285,45.166C172.593,24.877 190.736,7.52 212.226,7.072C212.57,7.067 212.914,7.065 213.258,7.066ZM212.778,13.066C195.1,13.223 178.544,27.574 176.3,45.403C174.28,61.444 184.041,78.251 199.072,84.342C211.663,89.444 227.006,86.911 237.251,78.003C249.21,67.605 253.25,49.124 246.66,34.679C240.914,22.081 227.755,13.364 213.666,13.071C213.37,13.067 213.074,13.065 212.778,13.066Z" style="fill:rgb(111,0,222);fill-rule:nonzero;"/>
</svg>
