<?xml version="1.0" encoding="UTF-8" standalone="no"?><!DOCTYPE svg PUBLIC "-//W3C//DTD SVG 1.1//EN" "http://www.w3.org/Graphics/SVG/1.1/DTD/svg11.dtd"><svg width="100%" height="100%" viewBox="0 0 77 16" version="1.1" xmlns="http://www.w3.org/2000/svg" xmlns:xlink="http://www.w3.org/1999/xlink" xml:space="preserve" xmlns:serif="http://www.serif.com/" style="fill-rule:evenodd;clip-rule:evenodd;stroke-linejoin:round;stroke-miterlimit:1.41421;"><g><path d="M11.434,8.46c-0.367,-0.861 -1.24,-1.206 -2.174,-1.435l-2.193,-0.539c-0.376,-0.088 -0.952,-0.238 -0.952,-0.94c0,-0.815 0.851,-1.078 1.566,-1.078c1.642,0 1.792,0.953 1.843,1.354l1.489,0c0.193,0.319 0.341,0.672 0.428,1.054c0.122,0.54 0.11,1.078 -0.007,1.584Zm-3.502,2.375c-1.642,0 -1.893,-0.952 -1.905,-1.454l-1.184,0c-0.157,-0.285 -0.28,-0.596 -0.356,-0.93c-0.135,-0.595 -0.11,-1.19 0.043,-1.74c0.414,1.085 1.534,1.349 2.687,1.618l0.965,0.225c0.952,0.226 1.63,0.414 1.63,1.116c0,0.952 -0.99,1.165 -1.88,1.165Zm0.031,-8.102c-2.719,0 -4.93,2.212 -4.93,4.931c0,2.719 2.211,4.93 4.93,4.93c2.719,0 4.932,-2.211 4.932,-4.93c0,-2.719 -2.213,-4.931 -4.932,-4.931Z" style="fill:#0c6333;fill-rule:nonzero;"/><path d="M9.21,13.127c-3.012,0.689 -6.022,-1.204 -6.71,-4.216c-0.687,-3.013 1.204,-6.023 4.216,-6.711c3.014,-0.688 6.025,1.204 6.712,4.217c0.688,3.012 -1.204,6.023 -4.218,6.71Zm5.968,-4.805c0.02,-0.218 0.03,-0.438 0.03,-0.659c0,-0.221 -0.011,-0.443 -0.031,-0.667c0,0 -0.375,-0.143 -0.913,-0.273c-0.023,-0.159 -0.051,-0.318 -0.088,-0.477c-0.037,-0.163 -0.082,-0.321 -0.13,-0.478c0.428,-0.35 0.704,-0.642 0.704,-0.642c-0.077,-0.204 -0.163,-0.407 -0.259,-0.606c-0.096,-0.199 -0.203,-0.395 -0.319,-0.587c0,0 -0.398,0.033 -0.938,0.149c-0.185,-0.272 -0.39,-0.528 -0.612,-0.766c0.233,-0.501 0.355,-0.883 0.355,-0.883c-0.158,-0.151 -0.324,-0.296 -0.496,-0.434c-0.174,-0.137 -0.354,-0.268 -0.542,-0.39c0,0 -0.345,0.203 -0.782,0.542c-0.283,-0.164 -0.577,-0.307 -0.883,-0.426c-0.007,-0.553 -0.063,-0.949 -0.063,-0.949c-0.208,-0.068 -0.42,-0.126 -0.635,-0.175c-0.216,-0.049 -0.435,-0.088 -0.658,-0.118c0,0 -0.222,0.332 -0.467,0.826c-0.324,-0.025 -0.652,-0.024 -0.982,0.002c-0.246,-0.495 -0.469,-0.828 -0.469,-0.828c-0.216,0.029 -0.433,0.068 -0.648,0.118c-0.216,0.049 -0.43,0.109 -0.644,0.179c0,0 -0.056,0.396 -0.063,0.948c-0.309,0.121 -0.604,0.263 -0.885,0.426c-0.435,-0.339 -0.78,-0.541 -0.78,-0.541c-0.182,0.12 -0.36,0.249 -0.533,0.387c-0.173,0.138 -0.34,0.285 -0.502,0.441c0,0 0.121,0.381 0.355,0.881c-0.223,0.24 -0.427,0.498 -0.61,0.769c-0.541,-0.117 -0.941,-0.151 -0.941,-0.151c-0.112,0.188 -0.216,0.381 -0.312,0.581c-0.096,0.199 -0.183,0.404 -0.261,0.614c0,0 0.275,0.292 0.703,0.641c-0.097,0.312 -0.17,0.631 -0.218,0.957c-0.538,0.129 -0.911,0.272 -0.911,0.272c-0.021,0.218 -0.03,0.438 -0.03,0.659c0,0.221 0.01,0.443 0.031,0.667c0,0 0.375,0.143 0.913,0.272c0.024,0.16 0.052,0.319 0.088,0.478c0.037,0.163 0.082,0.321 0.13,0.478c-0.428,0.35 -0.704,0.642 -0.704,0.642c0.077,0.205 0.163,0.407 0.259,0.606c0.097,0.199 0.202,0.395 0.318,0.587c0,0 0.399,-0.033 0.939,-0.15c0.185,0.273 0.39,0.529 0.613,0.767c-0.234,0.501 -0.356,0.882 -0.356,0.882c0.158,0.152 0.323,0.296 0.497,0.434c0.173,0.137 0.353,0.268 0.541,0.391c0,0 0.345,-0.203 0.781,-0.542c0.283,0.164 0.578,0.307 0.884,0.426c0.007,0.553 0.063,0.949 0.063,0.949c0.208,0.067 0.42,0.126 0.635,0.175c0.216,0.049 0.435,0.088 0.658,0.118c0,0 0.222,-0.332 0.467,-0.826c0.324,0.025 0.652,0.024 0.983,-0.002c0.245,0.495 0.468,0.827 0.468,0.827c0.216,-0.029 0.433,-0.068 0.648,-0.117c0.216,-0.05 0.43,-0.11 0.644,-0.18c0,0 0.056,-0.395 0.063,-0.947c0.309,-0.121 0.605,-0.263 0.885,-0.426c0.436,0.339 0.78,0.541 0.78,0.541c0.182,-0.12 0.36,-0.249 0.533,-0.387c0.172,-0.138 0.34,-0.286 0.502,-0.441c0,0 -0.121,-0.381 -0.355,-0.882c0.224,-0.24 0.427,-0.497 0.61,-0.768c0.541,0.117 0.941,0.151 0.941,0.151c0.112,-0.188 0.216,-0.381 0.312,-0.58c0.096,-0.2 0.183,-0.405 0.261,-0.616c0,0 -0.275,-0.29 -0.703,-0.641c0.097,-0.311 0.17,-0.63 0.218,-0.956c0.538,-0.129 0.911,-0.272 0.911,-0.272Z" style="fill:#0c6333;fill-rule:nonzero;"/><path d="M18.046,3.736l0.71,0l0,0.376l0.011,0c0.202,-0.289 0.483,-0.435 0.841,-0.439c0.176,0 0.335,0.034 0.477,0.1c0.142,0.076 0.25,0.196 0.324,0.36c0.082,-0.129 0.193,-0.238 0.336,-0.326c0.138,-0.086 0.303,-0.13 0.495,-0.134c0.297,0 0.54,0.074 0.727,0.219c0.182,0.156 0.274,0.411 0.278,0.764l0,1.844l-0.736,0l0,-1.561c0,-0.095 -0.002,-0.184 -0.006,-0.265c-0.007,-0.083 -0.028,-0.154 -0.062,-0.214c-0.028,-0.06 -0.075,-0.108 -0.141,-0.145c-0.065,-0.031 -0.155,-0.047 -0.267,-0.047c-0.107,0 -0.194,0.019 -0.259,0.057c-0.07,0.041 -0.124,0.092 -0.164,0.156c-0.037,0.065 -0.063,0.137 -0.077,0.219c-0.015,0.085 -0.022,0.174 -0.022,0.265l0,1.535l-0.735,0l0,-1.545c0,-0.081 0,-0.165 0,-0.25c-0.003,-0.081 -0.02,-0.154 -0.048,-0.218c-0.025,-0.068 -0.071,-0.121 -0.137,-0.162c-0.066,-0.038 -0.161,-0.057 -0.286,-0.057c-0.039,0 -0.087,0.007 -0.141,0.021c-0.062,0.014 -0.121,0.044 -0.177,0.091c-0.053,0.043 -0.1,0.108 -0.141,0.192c-0.043,0.082 -0.065,0.192 -0.065,0.331l0,1.597l-0.735,0l0,-2.764Z" style="fill:#0c6333;fill-rule:nonzero;"/><path d="M24.607,5.15c-0.066,0.05 -0.153,0.084 -0.263,0.102c-0.114,0.017 -0.231,0.037 -0.349,0.057c-0.116,0.02 -0.215,0.057 -0.298,0.113c-0.091,0.061 -0.137,0.158 -0.137,0.295c0.003,0.136 0.051,0.228 0.142,0.277c0.085,0.05 0.188,0.075 0.309,0.075c0.144,0 0.259,-0.026 0.343,-0.081c0.083,-0.045 0.141,-0.103 0.175,-0.174c0.035,-0.072 0.058,-0.143 0.068,-0.215c0.007,-0.071 0.01,-0.127 0.01,-0.167l0,-0.282Zm-1.699,-0.555c0.035,-0.352 0.178,-0.596 0.425,-0.732c0.246,-0.13 0.524,-0.193 0.834,-0.19c0.139,0 0.276,0.008 0.415,0.021c0.138,0.021 0.264,0.06 0.377,0.117c0.118,0.057 0.211,0.137 0.28,0.239c0.069,0.106 0.104,0.241 0.104,0.405l0,1.431c0,0.125 0.008,0.243 0.025,0.354c0.014,0.112 0.037,0.199 0.069,0.26l-0.747,0c-0.029,-0.085 -0.046,-0.174 -0.053,-0.267c-0.116,0.12 -0.255,0.207 -0.415,0.262c-0.155,0.053 -0.317,0.081 -0.486,0.081c-0.26,0 -0.474,-0.07 -0.643,-0.209c-0.175,-0.132 -0.265,-0.339 -0.268,-0.621c0,-0.16 0.027,-0.29 0.081,-0.389c0.049,-0.104 0.117,-0.184 0.203,-0.241c0.089,-0.064 0.188,-0.11 0.295,-0.14c0.108,-0.031 0.218,-0.054 0.332,-0.067c0.119,-0.023 0.229,-0.041 0.332,-0.055c0.103,-0.011 0.194,-0.024 0.276,-0.041c0.172,-0.033 0.26,-0.121 0.263,-0.265c-0.003,-0.158 -0.05,-0.261 -0.138,-0.309c-0.092,-0.04 -0.204,-0.059 -0.337,-0.059c-0.29,-0.004 -0.452,0.133 -0.488,0.412l-0.736,0.003Z" style="fill:#0c6333;fill-rule:nonzero;"/><path d="M27.821,4.716c-0.052,-0.313 -0.232,-0.47 -0.544,-0.474c-0.228,0.007 -0.39,0.105 -0.487,0.292c-0.096,0.189 -0.143,0.389 -0.139,0.603c-0.004,0.206 0.043,0.399 0.139,0.576c0.049,0.085 0.111,0.154 0.187,0.208c0.076,0.057 0.171,0.086 0.283,0.086c0.342,-0.009 0.538,-0.195 0.588,-0.56l0.709,0c-0.124,0.746 -0.553,1.121 -1.291,1.129c-0.409,-0.004 -0.734,-0.137 -0.974,-0.401c-0.248,-0.258 -0.373,-0.595 -0.377,-1.012c0,-0.44 0.119,-0.797 0.357,-1.071c0.235,-0.275 0.571,-0.415 1.009,-0.419c0.328,0 0.614,0.085 0.856,0.255c0.239,0.174 0.374,0.436 0.404,0.788l-0.72,0Z" style="fill:#0c6333;fill-rule:nonzero;"/><path d="M29.109,2.685l0.735,0l0,1.448l0.018,0c0.096,-0.157 0.216,-0.272 0.361,-0.347c0.141,-0.075 0.281,-0.113 0.419,-0.113c0.381,0.004 0.644,0.106 0.785,0.307c0.131,0.203 0.195,0.479 0.192,0.827l0,1.693l-0.736,0l0,-1.555c0.007,-0.451 -0.149,-0.677 -0.469,-0.677c-0.387,-0.007 -0.577,0.256 -0.57,0.788l0,1.444l-0.735,0l0,-3.815Z" style="fill:#0c6333;fill-rule:nonzero;"/><path d="M32.329,3.736l0.735,0l0,2.764l-0.735,0l0,-2.764Zm0.735,-0.426l-0.735,0l0,-0.625l0.735,0l0,0.625Z" style="fill:#0c6333;fill-rule:nonzero;"/><path d="M33.751,3.736l0.697,0l0,0.386l0.016,0c0.098,-0.156 0.221,-0.272 0.37,-0.347c0.141,-0.067 0.29,-0.102 0.449,-0.102c0.383,0.004 0.644,0.106 0.785,0.307c0.132,0.203 0.196,0.479 0.193,0.827l0,1.693l-0.735,0l0,-1.555c0.007,-0.451 -0.15,-0.677 -0.47,-0.677c-0.386,-0.007 -0.576,0.256 -0.57,0.788l0,1.444l-0.735,0l0,-2.764Z" style="fill:#0c6333;fill-rule:nonzero;"/><path d="M38.749,4.822c-0.028,-0.191 -0.087,-0.337 -0.18,-0.438c-0.091,-0.095 -0.226,-0.142 -0.404,-0.142c-0.115,0 -0.21,0.019 -0.286,0.057c-0.082,0.04 -0.147,0.089 -0.193,0.15c-0.089,0.132 -0.133,0.256 -0.133,0.373l1.196,0Zm-1.196,0.479c0.025,0.475 0.244,0.709 0.657,0.706c0.152,0 0.282,-0.041 0.39,-0.121c0.103,-0.069 0.167,-0.15 0.192,-0.24l0.647,0c-0.217,0.626 -0.636,0.937 -1.254,0.93c-0.425,-0.004 -0.756,-0.14 -0.994,-0.406c-0.246,-0.264 -0.37,-0.611 -0.374,-1.043c0.004,-0.423 0.131,-0.769 0.385,-1.04c0.244,-0.272 0.572,-0.41 0.983,-0.414c0.459,0.008 0.797,0.171 1.014,0.493c0.055,0.075 0.104,0.154 0.147,0.238c0.037,0.085 0.068,0.178 0.093,0.278c0.048,0.197 0.063,0.404 0.045,0.619l-1.931,0Z" style="fill:#0c6333;fill-rule:nonzero;"/><path d="M40.19,4.242l-0.441,0l0,-0.506l0.441,0l0,-0.214c0,-0.249 0.076,-0.45 0.228,-0.603c0.145,-0.153 0.367,-0.231 0.668,-0.234c0.131,0.003 0.261,0.01 0.389,0.02l0,0.564c-0.085,-0.011 -0.176,-0.016 -0.27,-0.016c-0.097,0 -0.168,0.023 -0.214,0.071c-0.043,0.046 -0.065,0.128 -0.065,0.247l0,0.165l0.509,0l0,0.506l-0.509,0l0,2.258l-0.736,0l0,-2.258Z" style="fill:#0c6333;fill-rule:nonzero;"/><path d="M43.513,5.15c-0.066,0.05 -0.154,0.084 -0.263,0.102c-0.115,0.017 -0.231,0.037 -0.349,0.057c-0.117,0.02 -0.216,0.057 -0.298,0.113c-0.092,0.061 -0.137,0.158 -0.137,0.295c0.003,0.136 0.05,0.228 0.141,0.277c0.086,0.05 0.189,0.075 0.309,0.075c0.145,0 0.26,-0.026 0.344,-0.081c0.082,-0.045 0.141,-0.103 0.174,-0.174c0.036,-0.072 0.059,-0.143 0.069,-0.215c0.007,-0.071 0.01,-0.127 0.01,-0.167l0,-0.282Zm-1.699,-0.555c0.035,-0.352 0.177,-0.596 0.425,-0.732c0.246,-0.13 0.524,-0.193 0.834,-0.19c0.138,0 0.276,0.008 0.414,0.021c0.139,0.021 0.264,0.06 0.377,0.117c0.118,0.057 0.211,0.137 0.28,0.239c0.07,0.106 0.104,0.241 0.104,0.405l0,1.431c0,0.125 0.009,0.243 0.026,0.354c0.013,0.112 0.036,0.199 0.068,0.26l-0.747,0c-0.028,-0.085 -0.046,-0.174 -0.053,-0.267c-0.115,0.12 -0.254,0.207 -0.415,0.262c-0.155,0.053 -0.317,0.081 -0.485,0.081c-0.261,0 -0.475,-0.07 -0.644,-0.209c-0.175,-0.132 -0.265,-0.339 -0.268,-0.621c0,-0.16 0.027,-0.29 0.081,-0.389c0.049,-0.104 0.117,-0.184 0.203,-0.241c0.089,-0.064 0.188,-0.11 0.296,-0.14c0.106,-0.031 0.217,-0.054 0.332,-0.067c0.118,-0.023 0.228,-0.041 0.332,-0.055c0.103,-0.011 0.194,-0.024 0.275,-0.041c0.172,-0.033 0.261,-0.121 0.264,-0.265c-0.003,-0.158 -0.05,-0.261 -0.139,-0.309c-0.091,-0.04 -0.204,-0.059 -0.337,-0.059c-0.29,-0.004 -0.452,0.133 -0.487,0.412l-0.736,0.003Z" style="fill:#0c6333;fill-rule:nonzero;"/><path d="M46.921,5.127c0,-0.243 -0.049,-0.451 -0.146,-0.625c-0.103,-0.169 -0.263,-0.256 -0.48,-0.26c-0.217,0.004 -0.373,0.091 -0.469,0.26c-0.105,0.174 -0.157,0.382 -0.157,0.625c0,0.238 0.052,0.44 0.157,0.607c0.096,0.178 0.252,0.269 0.469,0.273c0.217,-0.004 0.377,-0.095 0.48,-0.273c0.097,-0.167 0.146,-0.369 0.146,-0.607Zm-1.962,-2.442l0.735,0l0,1.398l0.01,0c0.098,-0.142 0.221,-0.248 0.369,-0.316c0.148,-0.062 0.306,-0.094 0.475,-0.094c0.283,0 0.536,0.114 0.76,0.341c0.224,0.234 0.34,0.604 0.348,1.108c-0.008,0.503 -0.124,0.87 -0.348,1.103c-0.225,0.233 -0.478,0.351 -0.761,0.351c-0.196,0 -0.37,-0.034 -0.524,-0.102c-0.152,-0.067 -0.27,-0.176 -0.357,-0.325l-0.01,0l0,0.351l-0.697,0l0,-3.815Z" style="fill:#0c6333;fill-rule:nonzero;"/><path d="M48.257,3.736l0.698,0l0,0.514l0.011,0c0.072,-0.182 0.187,-0.325 0.346,-0.428c0.155,-0.096 0.326,-0.145 0.509,-0.149c0.055,0 0.109,0.009 0.161,0.027l0,0.704c-0.077,-0.017 -0.165,-0.027 -0.265,-0.027c-0.265,0.004 -0.454,0.089 -0.563,0.256c-0.111,0.166 -0.165,0.375 -0.162,0.628l0,1.239l-0.735,0l0,-2.764Z" style="fill:#0c6333;fill-rule:nonzero;"/><path d="M50.406,3.736l0.736,0l0,2.764l-0.736,0l0,-2.764Zm0.736,-0.426l-0.736,0l0,-0.625l0.736,0l0,0.625Z" style="fill:#0c6333;fill-rule:nonzero;"/><path d="M53.625,4.822c-0.027,-0.191 -0.087,-0.337 -0.179,-0.438c-0.091,-0.095 -0.226,-0.142 -0.405,-0.142c-0.115,0 -0.211,0.019 -0.286,0.057c-0.083,0.04 -0.146,0.089 -0.193,0.15c-0.088,0.132 -0.134,0.256 -0.134,0.373l1.197,0Zm-1.197,0.479c0.026,0.475 0.245,0.709 0.658,0.706c0.152,0 0.282,-0.041 0.39,-0.121c0.103,-0.069 0.166,-0.15 0.192,-0.24l0.647,0c-0.218,0.626 -0.636,0.937 -1.254,0.93c-0.425,-0.004 -0.756,-0.14 -0.993,-0.406c-0.247,-0.264 -0.371,-0.611 -0.375,-1.043c0.004,-0.423 0.131,-0.769 0.385,-1.04c0.244,-0.272 0.572,-0.41 0.983,-0.414c0.459,0.008 0.796,0.171 1.014,0.493c0.055,0.075 0.104,0.154 0.147,0.238c0.037,0.085 0.068,0.178 0.093,0.278c0.048,0.197 0.063,0.404 0.046,0.619l-1.933,0Z" style="fill:#0c6333;fill-rule:nonzero;"/><path d="M54.96,2.685l0.735,0l0,2.046l0.928,-0.995l0.869,0l-1.011,1.016l1.125,1.748l-0.892,0l-0.732,-1.232l-0.287,0.281l0,0.951l-0.735,0l0,-3.815Z" style="fill:#0c6333;fill-rule:nonzero;"/><path d="M19.41,10.31c0,0.249 0.032,0.455 0.094,0.618c0.059,0.165 0.134,0.295 0.225,0.389c0.19,0.173 0.379,0.256 0.565,0.251c0.087,0 0.184,-0.018 0.291,-0.056c0.103,-0.04 0.198,-0.104 0.285,-0.195c0.094,-0.094 0.168,-0.224 0.225,-0.389c0.055,-0.163 0.082,-0.369 0.082,-0.618c0,-0.258 -0.027,-0.471 -0.082,-0.638c-0.057,-0.167 -0.131,-0.294 -0.225,-0.38c-0.194,-0.167 -0.386,-0.248 -0.576,-0.241c-0.087,0 -0.18,0.014 -0.28,0.043c-0.099,0.038 -0.194,0.104 -0.285,0.198c-0.043,0.044 -0.082,0.096 -0.119,0.157c-0.038,0.064 -0.073,0.137 -0.106,0.223c-0.062,0.167 -0.094,0.38 -0.094,0.638Zm-1.364,0c0.004,-0.714 0.214,-1.29 0.628,-1.726c0.4,-0.441 0.94,-0.665 1.62,-0.673c0.687,0.008 1.233,0.232 1.635,0.673c0.404,0.436 0.609,1.012 0.613,1.726c-0.004,0.709 -0.209,1.282 -0.613,1.719c-0.402,0.444 -0.948,0.671 -1.635,0.679c-0.68,-0.008 -1.22,-0.235 -1.62,-0.679c-0.414,-0.437 -0.624,-1.01 -0.628,-1.719Z" style="fill:#0c6333;fill-rule:nonzero;"/><path d="M24.167,9.191l-1.241,0l0,-1.171l3.849,0l0,1.171l-1.243,0l0,3.407l-1.365,0l0,-3.407Z" style="fill:#0c6333;fill-rule:nonzero;"/><path d="M28.656,9.191l-1.242,0l0,-1.171l3.85,0l0,1.171l-1.243,0l0,3.407l-1.365,0l0,-3.407Z" style="fill:#0c6333;fill-rule:nonzero;"/><path d="M33.004,10.31c0,0.249 0.032,0.455 0.094,0.618c0.059,0.165 0.134,0.295 0.225,0.389c0.19,0.173 0.378,0.256 0.565,0.251c0.087,0 0.184,-0.018 0.291,-0.056c0.103,-0.04 0.199,-0.104 0.285,-0.195c0.094,-0.094 0.169,-0.224 0.225,-0.389c0.055,-0.163 0.082,-0.369 0.082,-0.618c0,-0.258 -0.027,-0.471 -0.082,-0.638c-0.056,-0.167 -0.131,-0.294 -0.225,-0.38c-0.194,-0.167 -0.386,-0.248 -0.576,-0.241c-0.087,0 -0.181,0.014 -0.279,0.043c-0.1,0.038 -0.195,0.104 -0.286,0.198c-0.043,0.044 -0.082,0.096 -0.119,0.157c-0.037,0.064 -0.073,0.137 -0.106,0.223c-0.062,0.167 -0.094,0.38 -0.094,0.638Zm-1.364,0c0.004,-0.714 0.213,-1.29 0.627,-1.726c0.401,-0.441 0.941,-0.665 1.621,-0.673c0.688,0.008 1.233,0.232 1.635,0.673c0.404,0.436 0.609,1.012 0.613,1.726c-0.004,0.709 -0.209,1.282 -0.613,1.719c-0.402,0.444 -0.947,0.671 -1.635,0.679c-0.68,-0.008 -1.22,-0.235 -1.621,-0.679c-0.414,-0.437 -0.623,-1.01 -0.627,-1.719Z" style="fill:#0c6333;fill-rule:nonzero;"/><path d="M40.101,11.06c0,0.115 0.016,0.215 0.048,0.301c0.058,0.133 0.156,0.22 0.294,0.264c0.132,0.046 0.267,0.068 0.404,0.068c0.128,0.005 0.26,-0.021 0.396,-0.081c0.133,-0.06 0.202,-0.172 0.207,-0.335c0.004,-0.115 -0.061,-0.206 -0.195,-0.275c-0.139,-0.065 -0.404,-0.148 -0.795,-0.251c-0.183,-0.05 -0.363,-0.105 -0.538,-0.166c-0.184,-0.061 -0.35,-0.138 -0.498,-0.231c-0.15,-0.094 -0.272,-0.219 -0.366,-0.373c-0.098,-0.144 -0.148,-0.33 -0.148,-0.558c0.009,-0.53 0.194,-0.916 0.558,-1.159c0.349,-0.236 0.759,-0.353 1.232,-0.353c0.495,-0.004 0.922,0.102 1.279,0.318c0.348,0.232 0.538,0.622 0.571,1.172l-1.294,0c0.017,-0.17 -0.037,-0.291 -0.161,-0.364c-0.121,-0.075 -0.255,-0.112 -0.403,-0.112c-0.101,0 -0.205,0.019 -0.313,0.056c-0.048,0.021 -0.09,0.051 -0.124,0.091c-0.037,0.042 -0.054,0.095 -0.054,0.16c0.008,0.077 0.05,0.141 0.13,0.191c0.074,0.056 0.172,0.106 0.291,0.147c0.253,0.078 0.542,0.157 0.866,0.238c0.172,0.044 0.336,0.097 0.494,0.16c0.155,0.06 0.295,0.142 0.423,0.244c0.129,0.102 0.231,0.227 0.307,0.373c0.068,0.154 0.103,0.336 0.103,0.545c-0.013,0.586 -0.232,0.997 -0.659,1.23c-0.42,0.236 -0.897,0.352 -1.428,0.348c-0.133,0 -0.305,-0.02 -0.52,-0.059c-0.216,-0.038 -0.436,-0.113 -0.658,-0.223c-0.221,-0.113 -0.408,-0.279 -0.561,-0.501c-0.154,-0.213 -0.238,-0.501 -0.25,-0.865l1.362,0Z" style="fill:#0c6333;fill-rule:nonzero;"/><path d="M46.173,9.726c-0.004,-0.049 -0.016,-0.111 -0.036,-0.189c-0.024,-0.073 -0.062,-0.146 -0.112,-0.217c-0.049,-0.081 -0.12,-0.148 -0.213,-0.201c-0.091,-0.046 -0.209,-0.068 -0.351,-0.068c-0.312,0.008 -0.531,0.14 -0.658,0.398c-0.13,0.251 -0.193,0.539 -0.189,0.861c-0.004,0.322 0.059,0.609 0.189,0.86c0.127,0.261 0.346,0.395 0.658,0.398c0.226,0 0.396,-0.074 0.509,-0.222c0.107,-0.143 0.177,-0.323 0.21,-0.541l1.344,0c-0.004,0.482 -0.178,0.913 -0.522,1.293c-0.344,0.394 -0.846,0.597 -1.505,0.61c-0.715,-0.008 -1.269,-0.241 -1.658,-0.698c-0.393,-0.445 -0.59,-1.012 -0.59,-1.7c0.005,-0.736 0.209,-1.317 0.614,-1.745c0.398,-0.432 0.943,-0.65 1.634,-0.654c1.217,0.033 1.887,0.638 2.008,1.815l-1.332,0Z" style="fill:#0c6333;fill-rule:nonzero;"/><path d="M48.246,8.02l1.365,0l0,1.592l1.369,0l0,-1.592l1.364,0l0,4.578l-1.364,0l0,-1.816l-1.369,0l0,1.816l-1.365,0l0,-4.578Z" style="fill:#0c6333;fill-rule:nonzero;"/><path d="M54.475,10.31c0,0.249 0.031,0.455 0.093,0.618c0.06,0.165 0.134,0.295 0.225,0.389c0.191,0.173 0.379,0.256 0.565,0.251c0.087,0 0.184,-0.018 0.292,-0.056c0.103,-0.04 0.197,-0.104 0.285,-0.195c0.093,-0.094 0.168,-0.224 0.225,-0.389c0.054,-0.163 0.081,-0.369 0.081,-0.618c0,-0.258 -0.027,-0.471 -0.081,-0.638c-0.057,-0.167 -0.132,-0.294 -0.225,-0.38c-0.195,-0.167 -0.387,-0.248 -0.577,-0.241c-0.088,0 -0.18,0.014 -0.279,0.043c-0.099,0.038 -0.194,0.104 -0.286,0.198c-0.042,0.044 -0.082,0.096 -0.118,0.157c-0.039,0.064 -0.074,0.137 -0.107,0.223c-0.062,0.167 -0.093,0.38 -0.093,0.638Zm-1.365,0c0.004,-0.714 0.214,-1.29 0.628,-1.726c0.4,-0.441 0.94,-0.665 1.62,-0.673c0.688,0.008 1.233,0.232 1.635,0.673c0.405,0.436 0.609,1.012 0.613,1.726c-0.004,0.709 -0.208,1.282 -0.613,1.719c-0.402,0.444 -0.947,0.671 -1.635,0.679c-0.68,-0.008 -1.22,-0.235 -1.62,-0.679c-0.414,-0.437 -0.624,-1.01 -0.628,-1.719Z" style="fill:#0c6333;fill-rule:nonzero;"/><path d="M62.429,10.831c0,1.256 -0.688,1.881 -2.064,1.877c-1.377,0.004 -2.066,-0.622 -2.066,-1.879l0,-2.809l1.365,0l0,2.495c0,0.117 0.004,0.236 0.013,0.354c0.008,0.124 0.035,0.24 0.082,0.349c0.042,0.102 0.113,0.186 0.21,0.25c0.097,0.067 0.232,0.1 0.405,0.1c0.173,0 0.308,-0.033 0.405,-0.1c0.093,-0.064 0.16,-0.148 0.201,-0.25c0.043,-0.109 0.07,-0.225 0.078,-0.349c0.004,-0.118 0.006,-0.237 0.006,-0.354l0,-2.495l1.365,0l0,2.811Z" style="fill:#0c6333;fill-rule:nonzero;"/><path d="M64.273,9.191l-1.242,0l0,-1.171l3.85,0l0,1.171l-1.244,0l0,3.407l-1.364,0l0,-3.407Z" style="fill:#0c6333;fill-rule:nonzero;"/><path d="M67.484,8.02l3.669,0l0,1.171l-2.304,0l0,0.574l2.092,0l0,1.089l-2.092,0l0,0.574l2.374,0l0,1.17l-3.739,0l0,-4.578Z" style="fill:#0c6333;fill-rule:nonzero;"/><path d="M72.088,8.02l1.398,0l1.289,2.45l0.015,0l0,-2.45l1.29,0l0,4.578l-1.332,0l-1.359,-2.502l-0.011,0l0,2.502l-1.29,0l0,-4.578Z" style="fill:#0c6333;fill-rule:nonzero;"/></g></svg>