<svg viewBox="0 0 700 100" xmlns="http://www.w3.org/2000/svg" fill-rule="evenodd" clip-rule="evenodd" stroke-linecap="round" stroke-linejoin="round" stroke-miterlimit="1.5"><path fill="none" d="M0 0h700v100H0z"/><path d="M22.167 19.157l8.188 35.441 1.764 9.868 1.806-9.658 6.971-35.651h13.647l7.349 35.441 1.889 9.868 1.89-9.49 8.272-35.819h13.144L69.66 81.053H57.314L49.84 44.856l-2.184-11.968-2.183 11.968-7.475 36.197h-12.01L8.436 19.157h13.731zM129.751 38.851c0-3.219-.847-5.515-2.541-6.887-1.693-1.371-4.066-2.057-7.117-2.057h-12.052v18.224h12.052c3.051 0 5.424-.742 7.117-2.225 1.694-1.484 2.541-3.836 2.541-7.055zm12.808-.084c0 7.307-1.848 12.472-5.543 15.495-3.696 3.024-8.973 4.535-15.831 4.535h-13.144v22.256h-12.85V19.157h26.959c6.215 0 11.17 1.595 14.866 4.787 3.695 3.191 5.543 8.132 5.543 14.823zM304.984 61.947c.392 2.827 1.162 4.941 2.31 6.341 2.1 2.547 5.697 3.821 10.792 3.821 3.051 0 5.529-.336 7.433-1.008 3.611-1.288 5.417-3.681 5.417-7.181 0-2.043-.896-3.625-2.688-4.745-1.792-1.092-4.605-2.057-8.44-2.897l-6.551-1.47c-6.439-1.456-10.89-3.037-13.354-4.745-4.171-2.855-6.257-7.321-6.257-13.396 0-5.542 2.016-10.148 6.047-13.815 4.032-3.667 9.953-5.501 17.763-5.501 6.523 0 12.087 1.729 16.692 5.186s7.02 8.476 7.244 15.054h-12.43c-.224-3.723-1.848-6.369-4.871-7.936-2.016-1.036-4.521-1.554-7.517-1.554-3.331 0-5.991.672-7.978 2.016-1.988 1.343-2.982 3.219-2.982 5.627 0 2.211.98 3.863 2.94 4.955 1.259.728 3.947 1.581 8.062 2.561l10.666 2.562c4.675 1.12 8.203 2.617 10.582 4.493 3.696 2.911 5.543 7.125 5.543 12.64 0 5.655-2.162 10.351-6.488 14.088-4.325 3.737-10.435 5.606-18.329 5.606-8.063 0-14.403-1.841-19.023-5.522-4.619-3.681-6.928-8.741-6.928-15.18h12.345zM397.955 19.157v10.96h-18.518v50.936h-13.018V30.117h-18.603v-10.96h50.139zM422.437 57.664h15.705l-7.727-24.356-7.978 24.356zm.797-38.507h14.614l21.92 61.896h-14.026l-3.989-12.723h-22.802l-4.283 12.723h-13.522l22.088-61.896zM480.554 29.907v16.629h14.655c2.911 0 5.095-.336 6.551-1.008 2.575-1.176 3.863-3.5 3.863-6.971 0-3.751-1.246-6.271-3.737-7.558-1.4-.728-3.5-1.092-6.299-1.092h-15.033zm17.72-10.75c4.34.084 7.678.616 10.016 1.595a15.642 15.642 0 0 1 5.941 4.326 19.147 19.147 0 0 1 3.192 5.207c.784 1.903 1.176 4.073 1.176 6.508 0 2.94-.742 5.83-2.226 8.672-1.484 2.841-3.933 4.85-7.349 6.026 2.856 1.148 4.879 2.778 6.068 4.892 1.19 2.113 1.785 5.34 1.785 9.679v4.157c0 2.828.112 4.745.336 5.753.336 1.596 1.12 2.772 2.351 3.528v1.553h-14.235c-.392-1.372-.672-2.477-.84-3.317a30.483 30.483 0 0 1-.546-5.333l-.084-5.753c-.056-3.947-.776-6.579-2.162-7.895-1.386-1.315-3.982-1.973-7.79-1.973h-13.353v24.271h-12.64V19.157h30.36zM574.7 19.157v10.96h-18.518v50.936h-13.018V30.117h-18.602v-10.96H574.7zM628.03 30.117h-32.754V43.26h30.067v10.75h-30.067v15.915h34.266v11.128h-46.905V19.157h45.393v10.96zM652.554 29.907v16.629h14.655c2.911 0 5.095-.336 6.551-1.008 2.575-1.176 3.863-3.5 3.863-6.971 0-3.751-1.246-6.271-3.737-7.558-1.4-.728-3.5-1.092-6.299-1.092h-15.033zm17.72-10.75c4.34.084 7.678.616 10.016 1.595a15.642 15.642 0 0 1 5.941 4.326 19.147 19.147 0 0 1 3.192 5.207c.784 1.903 1.176 4.073 1.176 6.508 0 2.94-.742 5.83-2.226 8.672-1.484 2.841-3.933 4.85-7.349 6.026 2.856 1.148 4.879 2.778 6.068 4.892 1.19 2.113 1.785 5.34 1.785 9.679v4.157c0 2.828.112 4.745.336 5.753.336 1.596 1.12 2.772 2.351 3.528v1.553h-14.235c-.392-1.372-.672-2.477-.84-3.317a30.483 30.483 0 0 1-.546-5.333l-.084-5.753c-.056-3.947-.776-6.579-2.162-7.895-1.386-1.315-3.982-1.973-7.79-1.973h-13.353v24.271h-12.64V19.157h30.36z" fill="#444" fill-rule="nonzero"/><path d="M233.004 50.057h-40.008" fill="none" stroke="#6f00de" stroke-width="5"/><path d="M213.258 7.066c16.121.143 31.628 9.996 38.527 24.407 7.977 16.663 3.639 38.366-10.186 50.696-11.767 10.495-29.558 13.69-44.294 7.927-17.477-6.834-29.153-26.178-27.02-44.93 2.308-20.289 20.451-37.646 41.941-38.094.344-.005.688-.007 1.032-.006zm-.48 6c-17.678.157-34.234 14.508-36.478 32.337-2.02 16.041 7.741 32.848 22.772 38.939 12.591 5.102 27.934 2.569 38.179-6.339 11.959-10.398 15.999-28.879 9.409-43.324-5.746-12.598-18.905-21.315-32.994-21.608a52.573 52.573 0 0 0-.888-.005z" fill="#6f00de" fill-rule="nonzero"/></svg>