<svg viewBox="0 0 700 100" xmlns="http://www.w3.org/2000/svg" fill-rule="evenodd" clip-rule="evenodd" stroke-linejoin="round" stroke-miterlimit="1.414"><path fill="none" d="M0 0h700v100H0z"/><text x="7.176" y="81.053" font-family="'Helvetica-Bold','Helvetica'" font-weight="700" font-size="86" fill="#444">WP STARTER</text><path d="M214.667 7.009c16.103.143 31.603 9.943 38.527 24.407 7.977 16.663 3.638 38.365-10.186 50.696-11.767 10.496-29.558 13.69-44.294 7.927-17.497-6.842-29.149-26.207-27.02-44.93C174 24.835 192.144 7.463 213.635 7.015c.344-.005.688-.007 1.032-.006zm-.48 6c-17.616.157-34.112 14.395-36.45 32.116-2.125 16.106 7.656 33.046 22.743 39.16 12.593 5.102 27.935 2.569 38.18-6.339 11.959-10.397 16-28.88 9.409-43.325-5.747-12.597-18.906-21.313-32.994-21.607a43.811 43.811 0 0 0-.888-.005zm20.44 33.999c2.947.317 4.01 5.841-.214 5.992h-40.008c-2.271-.081-2.302-.819-2.729-1.754-.823-1.803.567-4.169 2.729-4.246h40.008l.214.008z" fill="#be1313" fill-rule="nonzero"/></svg>