<svg viewBox="0 0 77 16" xmlns="http://www.w3.org/2000/svg" fill-rule="evenodd" clip-rule="evenodd" stroke-linejoin="round" stroke-miterlimit="1.414"><g fill="#0c6333" fill-rule="nonzero"><path d="M11.434 8.46c-.367-.861-1.24-1.206-2.174-1.435l-2.193-.539c-.376-.088-.952-.238-.952-.94 0-.815.851-1.078 1.566-1.078 1.642 0 1.792.953 1.843 1.354h1.489c.193.319.341.672.428 1.054.122.54.11 1.078-.007 1.584zm-3.502 2.375c-1.642 0-1.893-.952-1.905-1.454H4.843a3.547 3.547 0 0 1-.313-2.67c.414 1.085 1.534 1.349 2.687 1.618l.965.225c.952.226 1.63.414 1.63 1.116 0 .952-.99 1.165-1.88 1.165zm.031-8.102a4.936 4.936 0 0 0-4.93 4.931 4.935 4.935 0 0 0 4.93 4.93 4.937 4.937 0 0 0 4.932-4.93 4.937 4.937 0 0 0-4.932-4.931z"/><path d="M9.21 13.127A5.61 5.61 0 0 1 2.5 8.911 5.611 5.611 0 0 1 6.716 2.2a5.61 5.61 0 0 1 6.712 4.217 5.61 5.61 0 0 1-4.218 6.71zm5.968-4.805a7.215 7.215 0 0 0-.001-1.326s-.375-.143-.913-.273a5.699 5.699 0 0 0-.218-.955c.428-.35.704-.642.704-.642a7.117 7.117 0 0 0-.578-1.193s-.398.033-.938.149a6.401 6.401 0 0 0-.612-.766c.233-.501.355-.883.355-.883a7.623 7.623 0 0 0-.496-.434 7.306 7.306 0 0 0-.542-.39s-.345.203-.782.542a6.35 6.35 0 0 0-.883-.426c-.007-.553-.063-.949-.063-.949A7.171 7.171 0 0 0 8.918.483s-.222.332-.467.826a6.314 6.314 0 0 0-.982.002C7.223.816 7 .483 7 .483A7.174 7.174 0 0 0 5.708.78s-.056.396-.063.948a6.442 6.442 0 0 0-.885.426c-.435-.339-.78-.541-.78-.541a7.288 7.288 0 0 0-1.035.828s.121.381.355.881c-.223.24-.427.498-.61.769-.541-.117-.941-.151-.941-.151a7.335 7.335 0 0 0-.573 1.195s.275.292.703.641a6.32 6.32 0 0 0-.218.957 8.061 8.061 0 0 0-.911.272 7.136 7.136 0 0 0 .001 1.326s.375.143.913.272c.024.16.052.319.088.478.037.163.082.321.13.478-.428.35-.704.642-.704.642a7.305 7.305 0 0 0 .577 1.193s.399-.033.939-.15c.185.273.39.529.613.767-.234.501-.356.882-.356.882a7.38 7.38 0 0 0 1.038.825s.345-.203.781-.542c.283.164.578.307.884.426.007.553.063.949.063.949a7.53 7.53 0 0 0 1.293.293s.222-.332.467-.826c.324.025.652.024.983-.002.245.495.468.827.468.827a7.281 7.281 0 0 0 1.292-.297s.056-.395.063-.947c.309-.121.605-.263.885-.426.436.339.78.541.78.541a7.288 7.288 0 0 0 1.035-.828s-.121-.381-.355-.882a6.25 6.25 0 0 0 .61-.768c.541.117.941.151.941.151a7.154 7.154 0 0 0 .573-1.196s-.275-.29-.703-.641c.097-.311.17-.63.218-.956.538-.129.911-.272.911-.272zM18.046 3.736h.71v.376h.011a.984.984 0 0 1 .841-.439c.176 0 .335.034.477.1.142.076.25.196.324.36.082-.129.193-.238.336-.326a.956.956 0 0 1 .495-.134c.297 0 .54.074.727.219.182.156.274.411.278.764V6.5h-.736V4.939c0-.095-.002-.184-.006-.265a.517.517 0 0 0-.062-.214.323.323 0 0 0-.141-.145.633.633 0 0 0-.267-.047.513.513 0 0 0-.259.057.464.464 0 0 0-.164.156.662.662 0 0 0-.077.219 1.529 1.529 0 0 0-.022.265V6.5h-.735V4.955v-.25a.596.596 0 0 0-.048-.218.317.317 0 0 0-.137-.162.58.58 0 0 0-.286-.057.58.58 0 0 0-.141.021.417.417 0 0 0-.177.091.56.56 0 0 0-.141.192.715.715 0 0 0-.065.331V6.5h-.735V3.736zM24.607 5.15a.585.585 0 0 1-.263.102c-.114.017-.231.037-.349.057a.754.754 0 0 0-.298.113c-.091.061-.137.158-.137.295.003.136.051.228.142.277a.6.6 0 0 0 .309.075.622.622 0 0 0 .343-.081.392.392 0 0 0 .175-.174.715.715 0 0 0 .068-.215c.007-.071.01-.127.01-.167V5.15zm-1.699-.555c.035-.352.178-.596.425-.732a1.72 1.72 0 0 1 .834-.19c.139 0 .276.008.415.021.138.021.264.06.377.117a.696.696 0 0 1 .28.239.73.73 0 0 1 .104.405v1.431c0 .125.008.243.025.354a.785.785 0 0 0 .069.26h-.747a1.072 1.072 0 0 1-.053-.267c-.116.12-.255.207-.415.262a1.493 1.493 0 0 1-.486.081.978.978 0 0 1-.643-.209c-.175-.132-.265-.339-.268-.621 0-.16.027-.29.081-.389a.576.576 0 0 1 .203-.241.932.932 0 0 1 .295-.14c.108-.031.218-.054.332-.067.119-.023.229-.041.332-.055a2.87 2.87 0 0 0 .276-.041c.172-.033.26-.121.263-.265-.003-.158-.05-.261-.138-.309a.844.844 0 0 0-.337-.059c-.29-.004-.452.133-.488.412l-.736.003zM27.821 4.716c-.052-.313-.232-.47-.544-.474-.228.007-.39.105-.487.292a1.258 1.258 0 0 0-.139.603c-.004.206.043.399.139.576a.647.647 0 0 0 .187.208.46.46 0 0 0 .283.086c.342-.009.538-.195.588-.56h.709c-.124.746-.553 1.121-1.291 1.129-.409-.004-.734-.137-.974-.401-.248-.258-.373-.595-.377-1.012 0-.44.119-.797.357-1.071.235-.275.571-.415 1.009-.419.328 0 .614.085.856.255.239.174.374.436.404.788h-.72zM29.109 2.685h.735v1.448h.018a.915.915 0 0 1 .361-.347.889.889 0 0 1 .419-.113c.381.004.644.106.785.307.131.203.195.479.192.827V6.5h-.736V4.945c.007-.451-.149-.677-.469-.677-.387-.007-.577.256-.57.788V6.5h-.735V2.685zM32.329 3.736h.735V6.5h-.735V3.736zm.735-.426h-.735v-.625h.735v.625zM33.751 3.736h.697v.386h.016a.93.93 0 0 1 .37-.347c.141-.067.29-.102.449-.102.383.004.644.106.785.307.132.203.196.479.193.827V6.5h-.735V4.945c.007-.451-.15-.677-.47-.677-.386-.007-.576.256-.57.788V6.5h-.735V3.736zM38.749 4.822c-.028-.191-.087-.337-.18-.438-.091-.095-.226-.142-.404-.142a.636.636 0 0 0-.286.057.521.521 0 0 0-.193.15.674.674 0 0 0-.133.373h1.196zm-1.196.479c.025.475.244.709.657.706a.637.637 0 0 0 .39-.121.437.437 0 0 0 .192-.24h.647c-.217.626-.636.937-1.254.93-.425-.004-.756-.14-.994-.406-.246-.264-.37-.611-.374-1.043.004-.423.131-.769.385-1.04.244-.272.572-.41.983-.414.459.008.797.171 1.014.493.055.075.104.154.147.238.037.085.068.178.093.278.048.197.063.404.045.619h-1.931zM40.19 4.242h-.441v-.506h.441v-.214c0-.249.076-.45.228-.603.145-.153.367-.231.668-.234.131.003.261.01.389.02v.564a2.12 2.12 0 0 0-.27-.016c-.097 0-.168.023-.214.071-.043.046-.065.128-.065.247v.165h.509v.506h-.509V6.5h-.736V4.242zM43.513 5.15a.59.59 0 0 1-.263.102c-.115.017-.231.037-.349.057a.742.742 0 0 0-.298.113c-.092.061-.137.158-.137.295.003.136.05.228.141.277.086.05.189.075.309.075.145 0 .26-.026.344-.081a.39.39 0 0 0 .174-.174.69.69 0 0 0 .069-.215c.007-.071.01-.127.01-.167V5.15zm-1.699-.555c.035-.352.177-.596.425-.732a1.72 1.72 0 0 1 .834-.19c.138 0 .276.008.414.021.139.021.264.06.377.117a.696.696 0 0 1 .28.239.72.72 0 0 1 .104.405v1.431c0 .125.009.243.026.354a.764.764 0 0 0 .068.26h-.747a1.119 1.119 0 0 1-.053-.267c-.115.12-.254.207-.415.262a1.491 1.491 0 0 1-.485.081.98.98 0 0 1-.644-.209c-.175-.132-.265-.339-.268-.621 0-.16.027-.29.081-.389a.576.576 0 0 1 .203-.241.927.927 0 0 1 .296-.14c.106-.031.217-.054.332-.067.118-.023.228-.041.332-.055a2.8 2.8 0 0 0 .275-.041c.172-.033.261-.121.264-.265-.003-.158-.05-.261-.139-.309a.84.84 0 0 0-.337-.059c-.29-.004-.452.133-.487.412l-.736.003zM46.921 5.127c0-.243-.049-.451-.146-.625-.103-.169-.263-.256-.48-.26-.217.004-.373.091-.469.26a1.186 1.186 0 0 0-.157.625c0 .238.052.44.157.607a.504.504 0 0 0 .469.273.528.528 0 0 0 .48-.273c.097-.167.146-.369.146-.607zm-1.962-2.442h.735v1.398h.01a.903.903 0 0 1 .369-.316c.148-.062.306-.094.475-.094.283 0 .536.114.76.341.224.234.34.604.348 1.108-.008.503-.124.87-.348 1.103-.225.233-.478.351-.761.351-.196 0-.37-.034-.524-.102a.764.764 0 0 1-.357-.325h-.01V6.5h-.697V2.685zM48.257 3.736h.698v.514h.011a.883.883 0 0 1 .346-.428.993.993 0 0 1 .509-.149.49.49 0 0 1 .161.027v.704a1.228 1.228 0 0 0-.265-.027c-.265.004-.454.089-.563.256-.111.166-.165.375-.162.628V6.5h-.735V3.736zM50.406 3.736h.736V6.5h-.736V3.736zm.736-.426h-.736v-.625h.736v.625zM53.625 4.822c-.027-.191-.087-.337-.179-.438-.091-.095-.226-.142-.405-.142a.633.633 0 0 0-.286.057.521.521 0 0 0-.193.15.684.684 0 0 0-.134.373h1.197zm-1.197.479c.026.475.245.709.658.706a.637.637 0 0 0 .39-.121.441.441 0 0 0 .192-.24h.647c-.218.626-.636.937-1.254.93-.425-.004-.756-.14-.993-.406-.247-.264-.371-.611-.375-1.043.004-.423.131-.769.385-1.04.244-.272.572-.41.983-.414.459.008.796.171 1.014.493.055.075.104.154.147.238.037.085.068.178.093.278.048.197.063.404.046.619h-1.933zM54.96 2.685h.735v2.046l.928-.995h.869l-1.011 1.016L57.606 6.5h-.892l-.732-1.232-.287.281V6.5h-.735V2.685zM19.41 10.31c0 .249.032.455.094.618.059.165.134.295.225.389.19.173.379.256.565.251a.786.786 0 0 0 .576-.251c.094-.094.168-.224.225-.389.055-.163.082-.369.082-.618 0-.258-.027-.471-.082-.638a.897.897 0 0 0-.225-.38c-.194-.167-.386-.248-.576-.241-.087 0-.18.014-.28.043a.861.861 0 0 0-.404.355 1.454 1.454 0 0 0-.106.223c-.062.167-.094.38-.094.638zm-1.364 0c.004-.714.214-1.29.628-1.726.4-.441.94-.665 1.62-.673.687.008 1.233.232 1.635.673.404.436.609 1.012.613 1.726-.004.709-.209 1.282-.613 1.719-.402.444-.948.671-1.635.679-.68-.008-1.22-.235-1.62-.679-.414-.437-.624-1.01-.628-1.719zM24.167 9.191h-1.241V8.02h3.849v1.171h-1.243v3.407h-1.365V9.191zM28.656 9.191h-1.242V8.02h3.85v1.171h-1.243v3.407h-1.365V9.191zM33.004 10.31c0 .249.032.455.094.618.059.165.134.295.225.389.19.173.378.256.565.251a.778.778 0 0 0 .576-.251.992.992 0 0 0 .225-.389c.055-.163.082-.369.082-.618 0-.258-.027-.471-.082-.638a.887.887 0 0 0-.225-.38c-.194-.167-.386-.248-.576-.241a.988.988 0 0 0-.279.043.861.861 0 0 0-.405.355 1.554 1.554 0 0 0-.106.223c-.062.167-.094.38-.094.638zm-1.364 0c.004-.714.213-1.29.627-1.726.401-.441.941-.665 1.621-.673.688.008 1.233.232 1.635.673.404.436.609 1.012.613 1.726-.004.709-.209 1.282-.613 1.719-.402.444-.947.671-1.635.679-.68-.008-1.22-.235-1.621-.679-.414-.437-.623-1.01-.627-1.719zM40.101 11.06a.86.86 0 0 0 .048.301c.058.133.156.22.294.264.132.046.267.068.404.068a.888.888 0 0 0 .396-.081c.133-.06.202-.172.207-.335.004-.115-.061-.206-.195-.275-.139-.065-.404-.148-.795-.251a8.213 8.213 0 0 1-.538-.166 2.28 2.28 0 0 1-.498-.231 1.126 1.126 0 0 1-.366-.373.972.972 0 0 1-.148-.558c.009-.53.194-.916.558-1.159.349-.236.759-.353 1.232-.353.495-.004.922.102 1.279.318.348.232.538.622.571 1.172h-1.294c.017-.17-.037-.291-.161-.364a.748.748 0 0 0-.403-.112.963.963 0 0 0-.313.056.339.339 0 0 0-.124.091.232.232 0 0 0-.054.16c.008.077.05.141.13.191.074.056.172.106.291.147.253.078.542.157.866.238.172.044.336.097.494.16.155.06.295.142.423.244.129.102.231.227.307.373.068.154.103.336.103.545-.013.586-.232.997-.659 1.23a2.822 2.822 0 0 1-1.948.289 2.438 2.438 0 0 1-.658-.223 1.513 1.513 0 0 1-.561-.501c-.154-.213-.238-.501-.25-.865h1.362zM46.173 9.726a1.183 1.183 0 0 0-.036-.189.831.831 0 0 0-.112-.217.574.574 0 0 0-.213-.201.781.781 0 0 0-.351-.068c-.312.008-.531.14-.658.398-.13.251-.193.539-.189.861-.004.322.059.609.189.86.127.261.346.395.658.398.226 0 .396-.074.509-.222.107-.143.177-.323.21-.541h1.344c-.004.482-.178.913-.522 1.293-.344.394-.846.597-1.505.61-.715-.008-1.269-.241-1.658-.698-.393-.445-.59-1.012-.59-1.7.005-.736.209-1.317.614-1.745.398-.432.943-.65 1.634-.654 1.217.033 1.887.638 2.008 1.815h-1.332zM48.246 8.02h1.365v1.592h1.369V8.02h1.364v4.578H50.98v-1.816h-1.369v1.816h-1.365V8.02zM54.475 10.31c0 .249.031.455.093.618.06.165.134.295.225.389.191.173.379.256.565.251a.795.795 0 0 0 .577-.251c.093-.094.168-.224.225-.389.054-.163.081-.369.081-.618 0-.258-.027-.471-.081-.638a.907.907 0 0 0-.225-.38c-.195-.167-.387-.248-.577-.241a.988.988 0 0 0-.279.043.858.858 0 0 0-.404.355 1.365 1.365 0 0 0-.107.223c-.062.167-.093.38-.093.638zm-1.365 0c.004-.714.214-1.29.628-1.726.4-.441.94-.665 1.62-.673.688.008 1.233.232 1.635.673.405.436.609 1.012.613 1.726-.004.709-.208 1.282-.613 1.719-.402.444-.947.671-1.635.679-.68-.008-1.22-.235-1.62-.679-.414-.437-.624-1.01-.628-1.719zM62.429 10.831c0 1.256-.688 1.881-2.064 1.877-1.377.004-2.066-.622-2.066-1.879V8.02h1.365v2.495c0 .117.004.236.013.354.008.124.035.24.082.349a.546.546 0 0 0 .21.25c.097.067.232.1.405.1.173 0 .308-.033.405-.1a.545.545 0 0 0 .201-.25c.043-.109.07-.225.078-.349.004-.118.006-.237.006-.354V8.02h1.365v2.811zM64.273 9.191h-1.242V8.02h3.85v1.171h-1.244v3.407h-1.364V9.191zM67.484 8.02h3.669v1.171h-2.304v.574h2.092v1.089h-2.092v.574h2.374v1.17h-3.739V8.02zM72.088 8.02h1.398l1.289 2.45h.015V8.02h1.29v4.578h-1.332l-1.359-2.502h-.011v2.502h-1.29V8.02z"/></g></svg>