<svg viewBox="0 0 100 100" xmlns="http://www.w3.org/2000/svg" fill-rule="evenodd" clip-rule="evenodd" stroke-linejoin="round" stroke-miterlimit="1.414"><path fill="none" d="M0 0h100v100H0z"/><path d="M50.36 7.066c16.103.144 31.603 9.943 38.527 24.407 7.977 16.663 3.638 38.365-10.186 50.696-11.767 10.496-29.558 13.69-44.294 7.927-17.497-6.842-29.15-26.207-27.02-44.93C9.693 24.892 27.837 7.52 49.328 7.072c.344-.005.688-.007 1.032-.006zm-.48 6c-17.616.157-34.112 14.395-36.45 32.116-2.125 16.106 7.656 33.046 22.743 39.16 12.593 5.102 27.935 2.569 38.18-6.339 11.959-10.397 15.999-28.88 9.409-43.324-5.747-12.598-18.906-21.314-32.994-21.608a43.811 43.811 0 0 0-.888-.005zm20.44 33.999c2.946.316 4.01 5.841-.214 5.992H30.098c-2.977-.106-4.224-5.849 0-6h40.008l.214.008z" fill="#be1313" fill-rule="nonzero"/></svg>